<?xml version="1.0"?>
<svg xmlns="http://www.w3.org/2000/svg" xmlns:xlink="http://www.w3.org/1999/xlink" xmlns:svgjs="http://svgjs.com/svgjs" version="1.1" width="512" height="512" x="0" y="0" viewBox="0 0 512 512" style="enable-background:new 0 0 512 512" xml:space="preserve" class=""><g><g xmlns="http://www.w3.org/2000/svg"><path d="m504.662 317.043c5.1-20.828 7.563-42.345 7.322-63.953-1.56-139.794-115.886-253.09-255.985-253.09-.133 0-.272 0-.404 0-139.712.218-253.53 112.276-255.567 252.201-2.085 143.249 111.239 259.076 254.66 259.796.438.002.87.003 1.307.003 23.819 0 47.404-3.271 70.112-9.726 8.464-2.406 14.74-9.264 16.381-17.897 1.636-8.605-1.675-17.257-8.64-22.58-1.234-.943-1.971-2.433-1.971-3.985 0-12.591 0-3.193 0-36.458 0-.926.256-1.861.783-2.69l28.359-44.625c.927-1.46 2.512-2.326 4.233-2.326h20.109c11.036 0 20.015-8.979 20.015-20.015v-11.034c0-2.77 2.237-5.015 5.009-5.015h.015c16.923.07 48.598.186 70.459.165 11.311-.009 21.098-7.729 23.803-18.771zm-14.57-3.568c-1.057 4.318-4.859 7.336-9.245 7.34-7.717.008-16.657-.002-25.739-.021 6.796-20.869 10.245-42.614 10.245-64.794 0-109.314-83.866-199.341-191.211-208.562-4.099-.351-7.76 2.704-8.114 6.831s2.704 7.76 6.831 8.115c99.529 8.549 177.494 93.596 177.494 193.617 0 22.23-3.719 43.988-11.06 64.752-10.987-.033-21.261-.072-28.824-.103h-.005c-.027 0-.052 0-.079 0 0 0-.004 0-.007 0-10.975 0-20 8.869-20 20.008v.007 11.034c0 2.766-2.25 5.015-5.015 5.015h-20.109c-6.7 0-13.112 3.331-16.894 9.28-11.08 17.436-8.131 12.796-28.359 44.625-1.915 3.014-3.123 6.792-3.123 10.735v19.265c-19.595 6.461-40.048 9.733-60.878 9.733-107.166 0-194.353-87.186-194.353-194.353 0-100.02 77.965-185.067 177.494-193.617 4.127-.354 7.186-3.988 6.831-8.115-.354-4.126-3.994-7.184-8.114-6.831-107.482 9.233-191.211 99.39-191.211 208.562 0 115.438 93.915 209.353 209.353 209.353 20.774 0 41.203-3.035 60.878-9.012v1.472c0 6.196 2.939 12.142 7.863 15.903 2.463 1.882 3.589 4.821 3.011 7.861-.583 3.068-2.73 5.412-5.746 6.269-21.765 6.188-44.4 9.259-67.241 9.151-134.942-.675-241.704-109.55-239.739-244.575 1.902-130.71 109.831-237.216 240.592-237.419h.376c131.447 0 239.523 106.807 240.991 238.257.227 20.351-2.091 40.61-6.893 60.217z" fill="#ffffff" data-original="#000000" style="" class=""/><path d="m439.745 372.9h-7.518c-6.884 0-13.198 3.469-16.893 9.28l-28.358 44.625c-2.044 3.215-3.124 6.927-3.124 10.736v36.458c0 6.196 2.939 12.142 7.863 15.904l22.843 17.456c1.33 1.016 2.935 1.541 4.555 1.541.981 0 1.968-.192 2.902-.585 21.427-8.998 41.567-20.914 59.862-35.419 5.188-4.112 8.162-10.288 8.162-16.942v-15.104c0-5.781-2.251-11.216-6.339-15.305l-28.251-28.251-.001-.001c-.102-.101-.159-.241-.159-.384v-8.462c.001-8.574-6.973-15.547-15.544-15.547zm-40.892 64.64c0-.954.271-1.884.783-2.69l28.358-44.625c.926-1.456 2.509-2.326 4.233-2.326h7.518c.301 0 .545.244.545.544v8.462c0 4.153 1.617 8.057 4.553 10.992l8.452 8.452c-16.054 14.5-34.615 26.361-54.442 34.802zm65.049-10.583 9.192 9.192c1.255 1.255 1.946 2.924 1.946 4.699v15.104c0 2.047-.904 3.938-2.48 5.188-16.091 12.757-33.693 23.386-52.381 31.634l-19.355-14.791c-1.234-.943-1.971-2.433-1.971-3.985v-6.654c23.795-9.274 46.065-23.115 65.049-40.387z" fill="#ffffff" data-original="#000000" style="" class=""/><path d="m232.379 118.182c-36.936 9.922-63.145 42.326-63.145 79.182 0 36.85 26.193 69.247 63.117 79.175v66.075c-9.754-6.519-15.82-16.857-15.82-27.977 0-13.04-10.608-23.648-23.648-23.648s-23.648 10.609-23.648 23.648c0 36.856 26.209 69.26 63.145 79.182.597 12.513 10.963 22.51 23.621 22.51s23.024-9.995 23.621-22.508c30.727-8.233 54.429-31.971 61.203-61.894.915-4.04-1.618-8.057-5.658-8.971-4.037-.913-8.056 1.619-8.971 5.659-5.902 26.066-27.683 46.432-55.49 51.884-3.519.69-6.057 3.774-6.057 7.36v4.822c0 4.769-3.88 8.648-8.648 8.648s-8.648-3.88-8.648-8.648v-4.822c0-3.586-2.538-6.67-6.057-7.36-33.063-6.482-57.061-34.181-57.061-65.861 0-4.769 3.88-8.648 8.648-8.648s8.648 3.88 8.648 8.648c0 20.978 14.449 39.873 35.955 47.018 2.292.76 4.801.374 6.754-1.036 1.954-1.41 3.111-3.672 3.111-6.082v-83.953c0-3.586-2.538-6.67-6.057-7.36-33.063-6.482-57.061-34.181-57.061-65.861s23.997-59.378 57.061-65.861c3.519-.69 6.057-3.774 6.057-7.36v-4.822c0-4.769 3.88-8.648 8.648-8.648s8.648 3.88 8.648 8.648v4.822c0 3.586 2.538 6.67 6.057 7.36 33.063 6.483 57.062 34.182 57.062 65.861 0 4.769-3.88 8.648-8.648 8.648s-8.648-3.88-8.648-8.648c0-20.977-14.45-39.872-35.956-47.018-2.291-.76-4.801-.374-6.754 1.036-1.954 1.41-3.111 3.672-3.111 6.082v83.953c0 3.586 2.538 6.67 6.057 7.36 26.274 5.151 47.726 24.207 54.648 48.546 1.134 3.985 5.284 6.294 9.266 5.162 3.984-1.133 6.295-5.282 5.162-9.266-7.907-27.8-31.162-49.918-60.133-57.751v-66.081c9.755 6.52 15.821 16.857 15.821 27.977 0 13.04 10.608 23.648 23.648 23.648s23.648-10.609 23.648-23.648c0-36.855-26.209-69.259-63.146-79.182-.597-12.513-10.963-22.51-23.621-22.51s-23.023 9.998-23.62 22.51z" fill="#ffffff" data-original="#000000" style="" class=""/><path d="m274.514 267.619c-2.291-.76-4.801-.374-6.754 1.036-1.954 1.41-3.111 3.672-3.111 6.082v79.801c0 2.41 1.157 4.672 3.111 6.082 1.958 1.412 4.47 1.793 6.754 1.036 21.506-7.146 35.956-26.041 35.956-47.018s-14.45-39.873-35.956-47.019zm5.134 74.996v-55.955c9.755 6.52 15.821 16.857 15.821 27.977s-6.066 21.458-15.821 27.978z" fill="#ffffff" data-original="#000000" style="" class=""/><path d="m244.24 151.382c-1.953-1.409-4.465-1.795-6.754-1.036-21.506 7.146-35.955 26.041-35.955 47.018 0 20.978 14.449 39.873 35.956 47.018.772.256 1.57.382 2.363.382 1.557 0 3.096-.484 4.39-1.418 1.954-1.41 3.111-3.672 3.111-6.082v-79.801c.001-2.409-1.157-4.672-3.111-6.081zm-11.888 73.959c-9.754-6.519-15.82-16.857-15.82-27.977s6.066-21.458 15.82-27.977z" fill="#ffffff" data-original="#000000" style="" class=""/></g></g></svg>
